<svg width="42" height="41" viewBox="0 0 42 41" fill="none" xmlns="http://www.w3.org/2000/svg">
<path d="M6.32405 12.303L20.9853 20.784L35.6465 12.303M20.9853 37.6957V20.7672M36.1 27.4849V14.0496C36.0994 13.4606 35.9439 12.8821 35.6491 12.3721C35.3544 11.8622 34.9307 11.4387 34.4206 11.1442L22.6647 4.42656C22.1541 4.13176 21.5749 3.97656 20.9853 3.97656C20.3957 3.97656 19.8165 4.13176 19.3059 4.42656L7.55001 11.1442C7.03992 11.4387 6.61623 11.8622 6.32146 12.3721C6.02669 12.8821 5.87121 13.4606 5.87061 14.0496V27.4849C5.87121 28.0739 6.02669 28.6524 6.32146 29.1623C6.61623 29.6723 7.03992 30.0957 7.55001 30.3902L19.3059 37.1079C19.8165 37.4027 20.3957 37.5579 20.9853 37.5579C21.5749 37.5579 22.1541 37.4027 22.6647 37.1079L34.4206 30.3902C34.9307 30.0957 35.3544 29.6723 35.6491 29.1623C35.9439 28.6524 36.0994 28.0739 36.1 27.4849Z" stroke="#B20000" stroke-width="2" stroke-linecap="round" stroke-linejoin="round"/>
</svg>
