<svg width="41" height="41" viewBox="0 0 41 41" fill="none" xmlns="http://www.w3.org/2000/svg">
<g clip-path="url(#clip0_2121_4200)">
<path d="M34.3748 22.4417H9.61195L8.03163 9.00642H24.023V5.6476H7.63529L7.56475 5.05645C7.42002 3.83149 6.83095 2.70218 5.90917 1.88254C4.98739 1.06291 3.79695 0.6099 2.56347 0.609375L0.51123 0.609375V3.96819H2.56347C2.97481 3.96825 3.37183 4.11927 3.67922 4.39261C3.98661 4.66595 4.183 5.04259 4.23112 5.45111L6.89299 28.0694C7.03733 29.2947 7.62624 30.4244 8.54806 31.2444C9.46988 32.0643 10.6605 32.5176 11.8943 32.5182H34.0994V29.1593H11.8943C11.4827 29.1592 11.0854 29.008 10.778 28.7343C10.4706 28.4606 10.2744 28.0836 10.2266 27.6747L10.0066 25.8005H37.1828L38.6943 17.4035H35.2834L34.3748 22.4417Z" fill="#B20000"/>
<path d="M12.2675 40.9168C14.1225 40.9168 15.6263 39.4131 15.6263 37.558C15.6263 35.703 14.1225 34.1992 12.2675 34.1992C10.4125 34.1992 8.90869 35.703 8.90869 37.558C8.90869 39.4131 10.4125 40.9168 12.2675 40.9168Z" fill="#B20000"/>
<path d="M29.061 40.9168C30.916 40.9168 32.4198 39.4131 32.4198 37.558C32.4198 35.703 30.916 34.1992 29.061 34.1992C27.2059 34.1992 25.7021 35.703 25.7021 37.558C25.7021 39.4131 27.2059 40.9168 29.061 40.9168Z" fill="#B20000"/>
<path d="M35.7784 5.6476V0.609375H32.4196V5.6476H27.3813V9.00642H32.4196V14.0447H35.7784V9.00642H40.8166V5.6476H35.7784Z" fill="#B20000"/>
</g>
<defs>
<clipPath id="clip0_2121_4200">
<rect width="40.3058" height="40.3058" fill="white" transform="translate(0.51123 0.609375)"/>
</clipPath>
</defs>
</svg>
