<svg width="40" height="33" viewBox="0 0 40 33" fill="none" xmlns="http://www.w3.org/2000/svg">
<path d="M28.2216 31.5419V28.1831C28.2216 26.4014 27.5139 24.6928 26.2541 23.433C24.9943 22.1732 23.2856 21.4654 21.504 21.4654H8.06871C6.28708 21.4654 4.57843 22.1732 3.31863 23.433C2.05882 24.6928 1.35107 26.4014 1.35107 28.1831V31.5419M38.2981 31.5419V28.1831C38.297 26.6946 37.8016 25.2487 36.8897 24.0724C35.9778 22.896 34.701 22.0558 33.2599 21.6837M26.5422 1.53082C27.9872 1.9008 29.268 2.74118 30.1826 3.91946C31.0972 5.09775 31.5936 6.54693 31.5936 8.03854C31.5936 9.53014 31.0972 10.9793 30.1826 12.1576C29.268 13.3359 27.9872 14.1763 26.5422 14.5462M21.504 8.03014C21.504 11.7402 18.4964 14.7478 14.7864 14.7478C11.0763 14.7478 8.06871 11.7402 8.06871 8.03014C8.06871 4.32009 11.0763 1.3125 14.7864 1.3125C18.4964 1.3125 21.504 4.32009 21.504 8.03014Z" stroke="#B20000" stroke-width="2" stroke-linecap="round" stroke-linejoin="round"/>
</svg>
