<svg width="41" height="41" viewBox="0 0 41 41" fill="none" xmlns="http://www.w3.org/2000/svg">
<path d="M25.1992 10.8721C24.8914 11.186 24.7191 11.6081 24.7191 12.0477C24.7191 12.4873 24.8914 12.9094 25.1992 13.2233L27.8862 15.9103C28.2001 16.2181 28.6222 16.3904 29.0618 16.3904C29.5014 16.3904 29.9235 16.2181 30.2374 15.9103L36.5688 9.57896C37.4132 11.4451 37.6689 13.5243 37.3018 15.5394C36.9346 17.5546 35.962 19.41 34.5136 20.8583C33.0653 22.3067 31.2099 23.2793 29.1947 23.6465C27.1796 24.0136 25.1004 23.7579 23.2343 22.9135L11.6295 34.5182C10.9614 35.1863 10.0553 35.5616 9.11042 35.5616C8.16557 35.5616 7.25941 35.1863 6.5913 34.5182C5.92319 33.8501 5.54785 32.9439 5.54785 31.9991C5.54785 31.0542 5.92319 30.1481 6.5913 29.48L18.196 17.8752C17.3516 16.0091 17.0959 13.9299 17.463 11.9148C17.8302 9.89964 18.8028 8.04424 20.2512 6.59586C21.6995 5.14748 23.5549 4.17491 25.5701 3.80774C27.5852 3.44058 29.6644 3.69627 31.5305 4.54073L25.216 10.8553L25.1992 10.8721Z" stroke="#B20000" stroke-width="2" stroke-linecap="round" stroke-linejoin="round"/>
</svg>
