<svg width="41" height="41" viewBox="0 0 41 41" fill="none" xmlns="http://www.w3.org/2000/svg">
<g clip-path="url(#clip0_2121_4145)">
<path fill-rule="evenodd" clip-rule="evenodd" d="M0.51123 8.93492C0.51123 7.93276 0.909339 6.97164 1.61798 6.263C2.32662 5.55436 3.28774 5.15625 4.2899 5.15625H26.9619C27.9641 5.15625 28.9252 5.55436 29.6339 6.263C30.3425 6.97164 30.7406 7.93276 30.7406 8.93492V12.7136H33.3101C33.8762 12.7141 34.435 12.8418 34.9452 13.0873C35.4553 13.3328 35.9038 13.6898 36.2575 14.1319L39.9883 18.7922C40.5251 19.4628 40.8174 20.2962 40.8171 21.1551V26.5687C40.8171 27.5709 40.419 28.532 39.7103 29.2406C39.0017 29.9493 38.0406 30.3474 37.0384 30.3474H35.7788C35.7788 31.6836 35.248 32.9651 34.3032 33.91C33.3583 34.8548 32.0768 35.3856 30.7406 35.3856C29.4044 35.3856 28.1229 34.8548 27.178 33.91C26.2332 32.9651 25.7024 31.6836 25.7024 30.3474H13.1068C13.1083 31.0189 12.9754 31.684 12.7161 32.3035C12.4569 32.923 12.0763 33.4844 11.597 33.9547C11.1176 34.425 10.549 34.7947 9.92471 35.0421C9.30038 35.2895 8.6329 35.4096 7.96149 35.3954C7.29009 35.3811 6.62831 35.2327 6.01507 34.959C5.40182 34.6853 4.84949 34.2917 4.39054 33.8015C3.93158 33.3112 3.57527 32.7342 3.34255 32.1042C3.10983 31.4743 3.00539 30.8042 3.03538 30.1333C2.2974 29.8735 1.65824 29.3911 1.20611 28.7526C0.753987 28.1142 0.511188 27.3511 0.51123 26.5687L0.51123 8.93492ZM3.77096 27.7174C4.22642 26.9718 4.86807 26.3574 5.63284 25.9348C6.39761 25.5122 7.25918 25.2959 8.13288 25.307C9.00658 25.3182 9.86233 25.5565 10.616 25.9986C11.3697 26.4406 11.9955 27.0712 12.4317 27.8283H26.3775C26.8206 27.0632 27.4564 26.4274 28.2215 25.9843V8.93492C28.2215 8.60087 28.0888 8.28049 27.8526 8.04428C27.6164 7.80807 27.296 7.67536 26.9619 7.67536H4.2899C3.95585 7.67536 3.63547 7.80807 3.39926 8.04428C3.16305 8.28049 3.03034 8.60087 3.03034 8.93492V26.5687C3.03015 26.8112 3.09992 27.0485 3.2313 27.2523C3.36267 27.456 3.55006 27.6176 3.77096 27.7174ZM30.7406 25.3092C31.625 25.3092 32.4938 25.542 33.2596 25.9842C34.0255 26.4264 34.6615 27.0624 35.1037 27.8283H37.0384C37.3724 27.8283 37.6928 27.6956 37.929 27.4594C38.1652 27.2232 38.2979 26.9028 38.2979 26.5687V21.1526C38.2974 20.8668 38.1997 20.5896 38.0208 20.3667L34.2926 15.7063C34.1748 15.5588 34.0253 15.4396 33.8552 15.3577C33.6852 15.2757 33.4989 15.233 33.3101 15.2327H30.7406V25.3092ZM8.06857 27.8283C7.40046 27.8283 6.75972 28.0937 6.28729 28.5661C5.81487 29.0385 5.54946 29.6793 5.54946 30.3474C5.54946 31.0155 5.81487 31.6562 6.28729 32.1287C6.75972 32.6011 7.40046 32.8665 8.06857 32.8665C8.73668 32.8665 9.37743 32.6011 9.84986 32.1287C10.3223 31.6562 10.5877 31.0155 10.5877 30.3474C10.5877 29.6793 10.3223 29.0385 9.84986 28.5661C9.37743 28.0937 8.73668 27.8283 8.06857 27.8283ZM30.7406 27.8283C30.0725 27.8283 29.4317 28.0937 28.9593 28.5661C28.4869 29.0385 28.2215 29.6793 28.2215 30.3474C28.2215 31.0155 28.4869 31.6562 28.9593 32.1287C29.4317 32.6011 30.0725 32.8665 30.7406 32.8665C31.4087 32.8665 32.0495 32.6011 32.5219 32.1287C32.9943 31.6562 33.2597 31.0155 33.2597 30.3474C33.2597 29.6793 32.9943 29.0385 32.5219 28.5661C32.0495 28.0937 31.4087 27.8283 30.7406 27.8283Z" fill="#B20000"/>
</g>
<defs>
<clipPath id="clip0_2121_4145">
<rect width="40.3058" height="40.3058" fill="white" transform="translate(0.51123 0.117188)"/>
</clipPath>
</defs>
</svg>
