<svg width="34" height="38" viewBox="0 0 34 38" fill="none" xmlns="http://www.w3.org/2000/svg">
<path fill-rule="evenodd" clip-rule="evenodd" d="M17 2.375C15.4253 2.375 13.9151 3.00056 12.8016 4.11405C11.6881 5.22755 11.0625 6.73778 11.0625 8.3125V9.5H22.9375V8.3125C22.9375 6.73778 22.3119 5.22755 21.1984 4.11405C20.0849 3.00056 18.5747 2.375 17 2.375V2.375ZM25.3125 9.5V8.3125C25.3125 6.10789 24.4367 3.99357 22.8778 2.43467C21.3189 0.875779 19.2046 0 17 0C14.7954 0 12.6811 0.875779 11.1222 2.43467C9.56328 3.99357 8.6875 6.10789 8.6875 8.3125V9.5H0.375V33.25C0.375 34.5098 0.875445 35.718 1.76624 36.6088C2.65704 37.4996 3.86522 38 5.125 38H28.875C30.1348 38 31.343 37.4996 32.2338 36.6088C33.1246 35.718 33.625 34.5098 33.625 33.25V9.5H25.3125ZM2.75 11.875V33.25C2.75 33.8799 3.00022 34.484 3.44562 34.9294C3.89102 35.3748 4.49511 35.625 5.125 35.625H28.875C29.5049 35.625 30.109 35.3748 30.5544 34.9294C30.9998 34.484 31.25 33.8799 31.25 33.25V11.875H2.75Z" fill="black"/>
</svg>
